<svg width="1200" height="630" viewBox="0 0 1200 630" fill="none" xmlns="http://www.w3.org/2000/svg">
  <rect width="1200" height="630" fill="#171717"/>
  <circle cx="1040" cy="96" r="240" fill="#87D34C" fill-opacity="0.12"/>
  <circle cx="220" cy="590" r="300" fill="#87D34C" fill-opacity="0.10"/>
  <rect x="72" y="72" width="1056" height="486" rx="40" fill="#202020" stroke="#363636" stroke-width="2"/>
  <g>
    <rect x="112" y="122" width="124" height="124" rx="28" fill="#87D34C"/>
    <path d="M132 116H184V136H152V170H171C193.091 170 211 187.909 211 210V230H191V210C191 198.954 182.046 190 171 190H132V116Z" fill="#111111"/>
    <path d="M224 156H244V240H224V156Z" fill="#111111"/>
    <circle cx="234" cy="128" r="14" fill="#111111"/>
  </g>
  <text x="288" y="176" fill="#F4F4F1" font-size="58" font-family="Arial, Helvetica, sans-serif" font-weight="700">
    Green Lake Trash Pickup
  </text>
  <text x="288" y="240" fill="#BFBFB8" font-size="28" font-family="Arial, Helvetica, sans-serif">
    Trash pickup in Green Lake, Seattle
  </text>
  <text x="112" y="344" fill="#F4F4F1" font-size="76" font-family="Arial, Helvetica, sans-serif" font-weight="700">
    Fast curbside pickups.
  </text>
  <text x="112" y="418" fill="#F4F4F1" font-size="76" font-family="Arial, Helvetica, sans-serif" font-weight="700">
    Simple text-first quotes.
  </text>
  <text x="112" y="500" fill="#BFBFB8" font-size="30" font-family="Arial, Helvetica, sans-serif">
    Green Lake • Wallingford • Roosevelt • Ravenna • Phinney Ridge
  </text>
</svg>
